<?xml version="1.0" encoding="UTF-8" standalone="no"?>
<svg
   xmlns:dc="http://purl.org/dc/elements/1.1/"
   xmlns:cc="http://creativecommons.org/ns#"
   xmlns:rdf="http://www.w3.org/1999/02/22-rdf-syntax-ns#"
   xmlns:svg="http://www.w3.org/2000/svg"
   xmlns="http://www.w3.org/2000/svg"
   xmlns:sodipodi="http://sodipodi.sourceforge.net/DTD/sodipodi-0.dtd"
   xmlns:inkscape="http://www.inkscape.org/namespaces/inkscape"
   inkscape:version="1.0 (4035a4f, 2020-05-01)"
   height="700"
   width="700"
   sodipodi:docname="umbrella-solid.svg"
   id="svg835"
   version="1.1"
   viewBox="0 0 700 700"
   role="img"
   class="svg-inline--fa fa-umbrella fa-w-18"
   data-icon="umbrella"
   data-prefix="fas"
   focusable="false"
   aria-hidden="true">
  <metadata
     id="metadata841">
    <rdf:RDF>
      <cc:Work
         rdf:about="">
        <dc:format>image/svg+xml</dc:format>
        <dc:type
           rdf:resource="http://purl.org/dc/dcmitype/StillImage" />
        <dc:title></dc:title>
      </cc:Work>
    </rdf:RDF>
  </metadata>
  <defs
     id="defs839" />
  <sodipodi:namedview
     inkscape:current-layer="svg835"
     inkscape:window-maximized="0"
     inkscape:window-y="23"
     inkscape:window-x="0"
     inkscape:cy="329.81304"
     inkscape:cx="449.13856"
     inkscape:zoom="0.66692327"
     showgrid="false"
     id="namedview837"
     inkscape:window-height="774"
     inkscape:window-width="1440"
     inkscape:pageshadow="2"
     inkscape:pageopacity="0"
     guidetolerance="10"
     gridtolerance="10"
     objecttolerance="10"
     borderopacity="1"
     bordercolor="#666666"
     pagecolor="#ffffff" />
  <rect
     y="0"
     x="0"
     height="700"
     width="700"
     id="rect843"
     style="fill:#0278ae;fill-opacity:1;stroke:none;stroke-width:1.07756" />
  <path
     style="fill:#eeeeee;fill-opacity:1"
     id="path833"
     d="m 637.17634,378.26249 c -28.6,-136.3 -138.4,-218.2 -255.7,-230.9 v -17.9 c 0,-17.7 -14.3,-32.000003 -32,-32.000003 -17.7,0 -32,14.300003 -32,32.000003 v 17.9 c -117.7,12.7 -226.500002,94.6 -255.700002,230.9 -2.2,10.1 8.5,21.3 18.7,11.4 52.000002,-55 107.700002,-52.4 158.600002,37 5.3,9.5 14.9,8.6 19.7,0 20.2,-35.4 44.9,-73.2 90.7,-73.2 58.5,0 88.2,68.8 90.7,73.2 4.8,8.6 14.4,9.5 19.7,0 51,-89.5 107.1,-91.4 158.6,-37 10.3,10 20.9,-1.3 18.7,-11.4 z m -319.7,20.9 v 130.3 c 0,8.8 -7.2,16 -16,16 -7.8,0 -13.2,-5.3 -15.1,-10.7 -5.9,-16.7 -24.1,-25.4 -40.8,-19.5 -16.7,5.9 -25.4,24.2 -19.5,40.8 11.2,31.9 41.6,53.3 75.4,53.3 44.1,0 80,-35.9 80,-80 v -130.3 c -9.1,-7.9 -19.8,-13.6 -32,-13.6 -12.3,0.1 -22.4,4.8 -32,13.7 z"
     fill="currentColor" />
</svg>
